<mxfile host="app.diagrams.net" modified="2021-04-07T15:35:30.883Z" agent="5.0 (Windows NT 10.0; Win64; x64) AppleWebKit/537.36 (KHTML, like Gecko) Chrome/89.0.4389.114 Safari/537.36" etag="0LwM49sb5AMGeoty52BH" version="14.5.8" type="github">
  <diagram name="Page-1" id="03018318-947c-dd8e-b7a3-06fadd420f32">
    <mxGraphModel dx="2000" dy="1726" grid="1" gridSize="10" guides="1" tooltips="1" connect="1" arrows="1" fold="1" page="1" pageScale="1" pageWidth="1100" pageHeight="850" background="#ffffff" math="0" shadow="0">
      <root>
        <mxCell id="0" />
        <mxCell id="1" parent="0" />
        <mxCell id="QCyk7nN_7s38NwZjsG4p-1" value="" style="strokeWidth=1;shadow=0;dashed=0;align=center;html=1;shape=mxgraph.mockup.containers.browserWindow;rSize=0;strokeColor=#666666;strokeColor2=#008cff;strokeColor3=#c4c4c4;mainText=,;recursiveResize=0;" vertex="1" parent="1">
          <mxGeometry x="1180" y="160" width="600" height="690" as="geometry" />
        </mxCell>
        <mxCell id="QCyk7nN_7s38NwZjsG4p-2" value="Page 1" style="strokeWidth=1;shadow=0;dashed=0;align=center;html=1;shape=mxgraph.mockup.containers.anchor;fontSize=17;fontColor=#666666;align=left;" vertex="1" parent="QCyk7nN_7s38NwZjsG4p-1">
          <mxGeometry x="60" y="12" width="110" height="26" as="geometry" />
        </mxCell>
        <mxCell id="QCyk7nN_7s38NwZjsG4p-3" value="https://www.draw.io" style="strokeWidth=1;shadow=0;dashed=0;align=center;html=1;shape=mxgraph.mockup.containers.anchor;rSize=0;fontSize=17;fontColor=#666666;align=left;" vertex="1" parent="QCyk7nN_7s38NwZjsG4p-1">
          <mxGeometry x="130" y="60" width="250" height="26" as="geometry" />
        </mxCell>
        <mxCell id="QCyk7nN_7s38NwZjsG4p-4" value="Create Post" style="text;html=1;fillColor=none;align=center;verticalAlign=top;whiteSpace=wrap;rounded=0;fontSize=27;fontStyle=1;strokeColor=#000000;perimeterSpacing=1;labelPosition=center;verticalLabelPosition=middle;" vertex="1" parent="QCyk7nN_7s38NwZjsG4p-1">
          <mxGeometry x="40" y="120" width="520" height="240" as="geometry" />
        </mxCell>
        <mxCell id="QCyk7nN_7s38NwZjsG4p-5" value="First Post" style="rounded=1;whiteSpace=wrap;html=1;strokeColor=#000000;fontSize=27;align=left;" vertex="1" parent="QCyk7nN_7s38NwZjsG4p-1">
          <mxGeometry x="120" y="220" width="360" height="30" as="geometry" />
        </mxCell>
        <mxCell id="QCyk7nN_7s38NwZjsG4p-6" value="Title" style="text;html=1;strokeColor=none;fillColor=none;align=left;verticalAlign=middle;whiteSpace=wrap;rounded=0;fontSize=27;fontStyle=1" vertex="1" parent="QCyk7nN_7s38NwZjsG4p-1">
          <mxGeometry x="60" y="220" width="60" height="30" as="geometry" />
        </mxCell>
        <mxCell id="QCyk7nN_7s38NwZjsG4p-7" value="Submit" style="rounded=1;whiteSpace=wrap;html=1;strokeColor=#000000;fontSize=27;align=center;" vertex="1" parent="QCyk7nN_7s38NwZjsG4p-1">
          <mxGeometry x="120" y="280" width="125" height="50" as="geometry" />
        </mxCell>
        <mxCell id="QCyk7nN_7s38NwZjsG4p-8" value="" style="strokeWidth=1;shadow=0;dashed=0;align=center;html=1;shape=mxgraph.mockup.containers.browserWindow;rSize=0;strokeColor=#666666;strokeColor2=#008cff;strokeColor3=#c4c4c4;mainText=,;recursiveResize=0;" vertex="1" parent="1">
          <mxGeometry x="1800" y="160" width="600" height="690" as="geometry" />
        </mxCell>
        <mxCell id="QCyk7nN_7s38NwZjsG4p-9" value="Page 1" style="strokeWidth=1;shadow=0;dashed=0;align=center;html=1;shape=mxgraph.mockup.containers.anchor;fontSize=17;fontColor=#666666;align=left;" vertex="1" parent="QCyk7nN_7s38NwZjsG4p-8">
          <mxGeometry x="60" y="12" width="110" height="26" as="geometry" />
        </mxCell>
        <mxCell id="QCyk7nN_7s38NwZjsG4p-10" value="https://www.draw.io" style="strokeWidth=1;shadow=0;dashed=0;align=center;html=1;shape=mxgraph.mockup.containers.anchor;rSize=0;fontSize=17;fontColor=#666666;align=left;" vertex="1" parent="QCyk7nN_7s38NwZjsG4p-8">
          <mxGeometry x="130" y="60" width="250" height="26" as="geometry" />
        </mxCell>
        <mxCell id="QCyk7nN_7s38NwZjsG4p-11" value="Create Post" style="text;html=1;fillColor=none;align=center;verticalAlign=top;whiteSpace=wrap;rounded=0;fontSize=27;fontStyle=1;strokeColor=#000000;perimeterSpacing=1;labelPosition=center;verticalLabelPosition=middle;" vertex="1" parent="QCyk7nN_7s38NwZjsG4p-8">
          <mxGeometry x="40" y="115" width="520" height="240" as="geometry" />
        </mxCell>
        <mxCell id="QCyk7nN_7s38NwZjsG4p-12" value="" style="rounded=1;whiteSpace=wrap;html=1;strokeColor=#000000;fontSize=27;" vertex="1" parent="QCyk7nN_7s38NwZjsG4p-8">
          <mxGeometry x="120" y="220" width="360" height="30" as="geometry" />
        </mxCell>
        <mxCell id="QCyk7nN_7s38NwZjsG4p-13" value="Title" style="text;html=1;strokeColor=none;fillColor=none;align=left;verticalAlign=middle;whiteSpace=wrap;rounded=0;fontSize=27;" vertex="1" parent="QCyk7nN_7s38NwZjsG4p-8">
          <mxGeometry x="60" y="220" width="60" height="30" as="geometry" />
        </mxCell>
        <mxCell id="QCyk7nN_7s38NwZjsG4p-14" value="Submit" style="rounded=1;whiteSpace=wrap;html=1;strokeColor=#000000;fontSize=27;align=center;" vertex="1" parent="QCyk7nN_7s38NwZjsG4p-8">
          <mxGeometry x="120" y="280" width="125" height="50" as="geometry" />
        </mxCell>
        <mxCell id="QCyk7nN_7s38NwZjsG4p-31" value="" style="line;strokeWidth=2;html=1;rounded=1;fontSize=27;align=center;" vertex="1" parent="QCyk7nN_7s38NwZjsG4p-8">
          <mxGeometry x="30" y="380" width="530" height="10" as="geometry" />
        </mxCell>
        <mxCell id="QCyk7nN_7s38NwZjsG4p-33" value="First Post" style="text;html=1;align=left;verticalAlign=top;whiteSpace=wrap;rounded=0;fontSize=27;fontStyle=1;strokeColor=#000000;perimeterSpacing=1;labelPosition=center;verticalLabelPosition=middle;glass=0;sketch=0;shadow=0;fillColor=#CCE5FF;" vertex="1" parent="QCyk7nN_7s38NwZjsG4p-8">
          <mxGeometry x="40" y="410" width="540" height="240" as="geometry" />
        </mxCell>
        <mxCell id="QCyk7nN_7s38NwZjsG4p-37" value="&lt;font style=&quot;font-size: 20px&quot;&gt;I&#39;m the first comment on the First Post&lt;/font&gt;" style="rounded=1;whiteSpace=wrap;html=1;strokeColor=#000000;fontSize=27;align=left;" vertex="1" parent="QCyk7nN_7s38NwZjsG4p-8">
          <mxGeometry x="190" y="540" width="360" height="30" as="geometry" />
        </mxCell>
        <mxCell id="QCyk7nN_7s38NwZjsG4p-38" value="Comment" style="text;html=1;strokeColor=none;fillColor=none;align=left;verticalAlign=middle;whiteSpace=wrap;rounded=0;fontSize=27;" vertex="1" parent="QCyk7nN_7s38NwZjsG4p-8">
          <mxGeometry x="60" y="540" width="60" height="30" as="geometry" />
        </mxCell>
        <mxCell id="QCyk7nN_7s38NwZjsG4p-39" value="Submit" style="rounded=1;whiteSpace=wrap;html=1;strokeColor=#000000;fontSize=27;align=center;" vertex="1" parent="QCyk7nN_7s38NwZjsG4p-8">
          <mxGeometry x="192.5" y="590" width="125" height="50" as="geometry" />
        </mxCell>
        <mxCell id="QCyk7nN_7s38NwZjsG4p-40" value="0 Comments" style="text;html=1;strokeColor=none;fillColor=none;align=center;verticalAlign=middle;whiteSpace=wrap;rounded=0;shadow=0;glass=0;sketch=0;fontSize=20;fontStyle=2" vertex="1" parent="QCyk7nN_7s38NwZjsG4p-8">
          <mxGeometry x="55" y="460" width="120" height="20" as="geometry" />
        </mxCell>
        <mxCell id="QCyk7nN_7s38NwZjsG4p-41" value="" style="strokeWidth=1;shadow=0;dashed=0;align=center;html=1;shape=mxgraph.mockup.containers.browserWindow;rSize=0;strokeColor=#666666;strokeColor2=#008cff;strokeColor3=#c4c4c4;mainText=,;recursiveResize=0;" vertex="1" parent="1">
          <mxGeometry x="2420" y="160" width="1210" height="690" as="geometry" />
        </mxCell>
        <mxCell id="QCyk7nN_7s38NwZjsG4p-42" value="Page 1" style="strokeWidth=1;shadow=0;dashed=0;align=center;html=1;shape=mxgraph.mockup.containers.anchor;fontSize=17;fontColor=#666666;align=left;" vertex="1" parent="QCyk7nN_7s38NwZjsG4p-41">
          <mxGeometry x="60" y="12" width="110" height="26" as="geometry" />
        </mxCell>
        <mxCell id="QCyk7nN_7s38NwZjsG4p-43" value="https://www.draw.io" style="strokeWidth=1;shadow=0;dashed=0;align=center;html=1;shape=mxgraph.mockup.containers.anchor;rSize=0;fontSize=17;fontColor=#666666;align=left;" vertex="1" parent="QCyk7nN_7s38NwZjsG4p-41">
          <mxGeometry x="130" y="60" width="250" height="26" as="geometry" />
        </mxCell>
        <mxCell id="QCyk7nN_7s38NwZjsG4p-44" value="Create Post" style="text;html=1;fillColor=none;align=center;verticalAlign=top;whiteSpace=wrap;rounded=0;fontSize=27;fontStyle=1;strokeColor=#000000;perimeterSpacing=1;labelPosition=center;verticalLabelPosition=middle;" vertex="1" parent="QCyk7nN_7s38NwZjsG4p-41">
          <mxGeometry x="40" y="115" width="520" height="240" as="geometry" />
        </mxCell>
        <mxCell id="QCyk7nN_7s38NwZjsG4p-45" value="Second Post" style="rounded=1;whiteSpace=wrap;html=1;strokeColor=#000000;fontSize=27;align=left;" vertex="1" parent="QCyk7nN_7s38NwZjsG4p-41">
          <mxGeometry x="120" y="220" width="360" height="30" as="geometry" />
        </mxCell>
        <mxCell id="QCyk7nN_7s38NwZjsG4p-46" value="Title" style="text;html=1;strokeColor=none;fillColor=none;align=left;verticalAlign=middle;whiteSpace=wrap;rounded=0;fontSize=27;" vertex="1" parent="QCyk7nN_7s38NwZjsG4p-41">
          <mxGeometry x="60" y="220" width="60" height="30" as="geometry" />
        </mxCell>
        <mxCell id="QCyk7nN_7s38NwZjsG4p-47" value="Submit" style="rounded=1;whiteSpace=wrap;html=1;strokeColor=#000000;fontSize=27;align=center;" vertex="1" parent="QCyk7nN_7s38NwZjsG4p-41">
          <mxGeometry x="120" y="280" width="125" height="50" as="geometry" />
        </mxCell>
        <mxCell id="QCyk7nN_7s38NwZjsG4p-48" value="" style="line;strokeWidth=2;html=1;rounded=1;fontSize=27;align=center;" vertex="1" parent="QCyk7nN_7s38NwZjsG4p-41">
          <mxGeometry x="30" y="380" width="1170" height="10" as="geometry" />
        </mxCell>
        <mxCell id="QCyk7nN_7s38NwZjsG4p-49" value="First Post" style="text;html=1;align=left;verticalAlign=top;whiteSpace=wrap;rounded=0;fontSize=27;fontStyle=1;strokeColor=#000000;perimeterSpacing=1;labelPosition=center;verticalLabelPosition=middle;glass=0;sketch=0;shadow=0;fillColor=#CCE5FF;" vertex="1" parent="QCyk7nN_7s38NwZjsG4p-41">
          <mxGeometry x="40" y="410" width="520" height="240" as="geometry" />
        </mxCell>
        <mxCell id="QCyk7nN_7s38NwZjsG4p-50" value="" style="rounded=1;whiteSpace=wrap;html=1;strokeColor=#000000;fontSize=27;align=left;" vertex="1" parent="QCyk7nN_7s38NwZjsG4p-41">
          <mxGeometry x="180" y="540" width="360" height="30" as="geometry" />
        </mxCell>
        <mxCell id="QCyk7nN_7s38NwZjsG4p-51" value="Comment" style="text;html=1;strokeColor=none;fillColor=none;align=left;verticalAlign=middle;whiteSpace=wrap;rounded=0;fontSize=27;" vertex="1" parent="QCyk7nN_7s38NwZjsG4p-41">
          <mxGeometry x="50" y="540" width="120" height="30" as="geometry" />
        </mxCell>
        <mxCell id="QCyk7nN_7s38NwZjsG4p-52" value="Submit" style="rounded=1;whiteSpace=wrap;html=1;strokeColor=#000000;fontSize=27;align=center;" vertex="1" parent="QCyk7nN_7s38NwZjsG4p-41">
          <mxGeometry x="182.5" y="590" width="125" height="50" as="geometry" />
        </mxCell>
        <mxCell id="QCyk7nN_7s38NwZjsG4p-53" value="1 Comments" style="text;html=1;strokeColor=none;fillColor=none;align=center;verticalAlign=middle;whiteSpace=wrap;rounded=0;shadow=0;glass=0;sketch=0;fontSize=20;fontStyle=2" vertex="1" parent="QCyk7nN_7s38NwZjsG4p-41">
          <mxGeometry x="55" y="460" width="120" height="20" as="geometry" />
        </mxCell>
        <mxCell id="QCyk7nN_7s38NwZjsG4p-55" value="&lt;ul&gt;&lt;li&gt;I&#39;m the first comment on the First Post&lt;/li&gt;&lt;/ul&gt;" style="text;html=1;strokeColor=none;fillColor=none;align=center;verticalAlign=middle;whiteSpace=wrap;rounded=0;shadow=0;glass=0;sketch=0;fontSize=20;" vertex="1" parent="QCyk7nN_7s38NwZjsG4p-41">
          <mxGeometry x="95" y="490" width="425" height="20" as="geometry" />
        </mxCell>
        <mxCell id="QCyk7nN_7s38NwZjsG4p-59" value="Second Post" style="text;html=1;align=left;verticalAlign=top;whiteSpace=wrap;rounded=0;fontSize=27;fontStyle=1;strokeColor=#000000;perimeterSpacing=1;labelPosition=center;verticalLabelPosition=middle;glass=0;sketch=0;shadow=0;fillColor=#CCE5FF;" vertex="1" parent="QCyk7nN_7s38NwZjsG4p-41">
          <mxGeometry x="580" y="410" width="520" height="240" as="geometry" />
        </mxCell>
        <mxCell id="QCyk7nN_7s38NwZjsG4p-60" value="0 Comments" style="text;html=1;strokeColor=none;fillColor=none;align=center;verticalAlign=middle;whiteSpace=wrap;rounded=0;shadow=0;glass=0;sketch=0;fontSize=20;fontStyle=2" vertex="1" parent="QCyk7nN_7s38NwZjsG4p-41">
          <mxGeometry x="590" y="460" width="120" height="20" as="geometry" />
        </mxCell>
        <mxCell id="QCyk7nN_7s38NwZjsG4p-61" value="&lt;font style=&quot;font-size: 16px&quot;&gt;I&#39;m the first comment on the Second Post&lt;/font&gt;" style="rounded=1;whiteSpace=wrap;html=1;strokeColor=#000000;fontSize=27;align=left;" vertex="1" parent="QCyk7nN_7s38NwZjsG4p-41">
          <mxGeometry x="720" y="540" width="360" height="30" as="geometry" />
        </mxCell>
        <mxCell id="QCyk7nN_7s38NwZjsG4p-62" value="Comment" style="text;html=1;strokeColor=none;fillColor=none;align=left;verticalAlign=middle;whiteSpace=wrap;rounded=0;fontSize=27;" vertex="1" parent="QCyk7nN_7s38NwZjsG4p-41">
          <mxGeometry x="590" y="540" width="120" height="30" as="geometry" />
        </mxCell>
        <mxCell id="QCyk7nN_7s38NwZjsG4p-63" value="Submit" style="rounded=1;whiteSpace=wrap;html=1;strokeColor=#000000;fontSize=27;align=center;" vertex="1" parent="QCyk7nN_7s38NwZjsG4p-41">
          <mxGeometry x="722.5" y="590" width="125" height="50" as="geometry" />
        </mxCell>
        <mxCell id="QCyk7nN_7s38NwZjsG4p-71" value="" style="edgeStyle=orthogonalEdgeStyle;rounded=1;orthogonalLoop=1;jettySize=auto;html=1;fontSize=28;jumpStyle=none;" edge="1" parent="1" source="QCyk7nN_7s38NwZjsG4p-64" target="QCyk7nN_7s38NwZjsG4p-70">
          <mxGeometry relative="1" as="geometry" />
        </mxCell>
        <mxCell id="QCyk7nN_7s38NwZjsG4p-74" style="edgeStyle=orthogonalEdgeStyle;rounded=1;jumpStyle=none;orthogonalLoop=1;jettySize=auto;html=1;exitX=1;exitY=0.5;exitDx=0;exitDy=0;entryX=0;entryY=0.5;entryDx=0;entryDy=0;fontSize=28;" edge="1" parent="1" source="QCyk7nN_7s38NwZjsG4p-64" target="QCyk7nN_7s38NwZjsG4p-73">
          <mxGeometry relative="1" as="geometry" />
        </mxCell>
        <mxCell id="QCyk7nN_7s38NwZjsG4p-64" value="Posts" style="rounded=0;whiteSpace=wrap;html=1;shadow=0;glass=0;sketch=0;strokeColor=#d79b00;fillColor=#ffe6cc;fontSize=28;align=center;fontStyle=1;horizontal=1;backgroundOutline=0;metaEdit=0;" vertex="1" parent="1">
          <mxGeometry x="3680" y="420" width="170" height="60" as="geometry" />
        </mxCell>
        <mxCell id="QCyk7nN_7s38NwZjsG4p-70" value="Create a Post" style="whiteSpace=wrap;html=1;rounded=0;shadow=0;fontSize=28;fontStyle=1;glass=0;sketch=0;gradientDirection=north;" vertex="1" parent="1">
          <mxGeometry x="3900" y="380" width="270" height="60" as="geometry" />
        </mxCell>
        <mxCell id="QCyk7nN_7s38NwZjsG4p-73" value="List all Posts" style="whiteSpace=wrap;html=1;rounded=0;shadow=0;fontSize=28;fontStyle=1;glass=0;sketch=0;" vertex="1" parent="1">
          <mxGeometry x="3900" y="460" width="270" height="60" as="geometry" />
        </mxCell>
        <mxCell id="QCyk7nN_7s38NwZjsG4p-75" value="" style="edgeStyle=orthogonalEdgeStyle;rounded=1;orthogonalLoop=1;jettySize=auto;html=1;fontSize=28;jumpStyle=none;" edge="1" parent="1" source="QCyk7nN_7s38NwZjsG4p-77" target="QCyk7nN_7s38NwZjsG4p-78">
          <mxGeometry relative="1" as="geometry" />
        </mxCell>
        <mxCell id="QCyk7nN_7s38NwZjsG4p-76" style="edgeStyle=orthogonalEdgeStyle;rounded=1;jumpStyle=none;orthogonalLoop=1;jettySize=auto;html=1;exitX=1;exitY=0.5;exitDx=0;exitDy=0;entryX=0;entryY=0.5;entryDx=0;entryDy=0;fontSize=28;" edge="1" parent="1" source="QCyk7nN_7s38NwZjsG4p-77" target="QCyk7nN_7s38NwZjsG4p-79">
          <mxGeometry relative="1" as="geometry" />
        </mxCell>
        <mxCell id="QCyk7nN_7s38NwZjsG4p-77" value="Comments" style="rounded=0;whiteSpace=wrap;html=1;shadow=0;glass=0;sketch=0;strokeColor=#d79b00;fillColor=#ffe6cc;fontSize=28;align=center;fontStyle=1;horizontal=1;backgroundOutline=0;metaEdit=0;" vertex="1" parent="1">
          <mxGeometry x="3680" y="605" width="170" height="60" as="geometry" />
        </mxCell>
        <mxCell id="QCyk7nN_7s38NwZjsG4p-78" value="Create a comments" style="whiteSpace=wrap;html=1;rounded=0;shadow=0;fontSize=28;fontStyle=1;glass=0;sketch=0;gradientDirection=north;" vertex="1" parent="1">
          <mxGeometry x="3900" y="565" width="270" height="60" as="geometry" />
        </mxCell>
        <mxCell id="QCyk7nN_7s38NwZjsG4p-79" value="List all comments" style="whiteSpace=wrap;html=1;rounded=0;shadow=0;fontSize=28;fontStyle=1;glass=0;sketch=0;" vertex="1" parent="1">
          <mxGeometry x="3900" y="645" width="270" height="60" as="geometry" />
        </mxCell>
      </root>
    </mxGraphModel>
  </diagram>
</mxfile>
